<?xml version="1.0" standalone="no"?>
<!DOCTYPE svg PUBLIC "-//W3C//DTD SVG 20010904//EN"
 "http://www.w3.org/TR/2001/REC-SVG-20010904/DTD/svg10.dtd">
<svg version="1.0" xmlns="http://www.w3.org/2000/svg"
 width="260.000000pt" height="260.000000pt" viewBox="0 0 260.000000 260.000000"
 preserveAspectRatio="xMidYMid meet">
<metadata>
Created by potrace 1.14, written by Peter Selinger 2001-2017
</metadata>
<g transform="translate(0.000000,260.000000) scale(0.100000,-0.100000)"
fill="#000000" stroke="none">
<path d="M1110 2208 c-264 -35 -482 -223 -568 -488 -21 -63 -24 -77 -37 -170
-12 -80 -7 -243 11 -333 41 -215 211 -440 397 -525 99 -46 154 -51 612 -51
l430 -1 -50 44 c-27 24 -63 54 -78 67 l-29 24 0 299 -1 299 85 83 c77 76 83
84 59 85 -14 0 -212 1 -439 2 -266 1 -412 6 -413 12 0 6 8 12 18 14 30 5 53
32 53 62 0 41 -9 58 -42 75 -33 17 -84 6 -111 -24 -41 -47 -38 -141 6 -182 37
-35 93 -43 317 -44 l215 -1 0 -30 0 -30 -205 1 c-209 1 -264 9 -304 43 -17 15
-18 15 -15 -9 3 -18 17 -31 52 -49 46 -23 57 -24 262 -24 l214 0 3 -271 c2
-149 1 -292 -2 -317 l-5 -45 -135 2 c-154 2 -181 6 -268 33 -164 51 -280 184
-327 375 -9 38 -19 79 -22 90 -13 53 -11 335 3 415 58 330 267 508 538 460
156 -28 262 -144 296 -325 l13 -66 112 223 c62 123 111 226 109 228 -2 2 -22
-4 -46 -13 -61 -25 -131 -21 -275 14 -220 55 -307 64 -433 48z"/>
<path d="M1811 1901 c-55 -109 -101 -204 -101 -211 0 -6 7 -10 16 -8 18 4 216
387 209 406 -2 6 -8 12 -13 12 -5 0 -55 -90 -111 -199z"/>
<path d="M1175 2039 c-4 -5 -10 -7 -14 -5 -4 3 -34 -10 -67 -28 -155 -85 -232
-278 -232 -578 1 -309 59 -478 205 -600 71 -59 71 -45 1 31 -134 145 -164 249
-162 571 1 255 33 375 125 474 120 131 302 143 469 31 59 -40 65 -30 13 21
-64 62 -133 89 -240 91 -51 1 -95 -2 -98 -8z"/>
<path d="M1923 1427 l-70 -72 1 -296 1 -295 78 -90 c42 -49 77 -91 77 -94 0
-3 -208 -5 -462 -5 -417 1 -469 3 -526 20 -34 10 -65 15 -68 12 -3 -3 24 -19
59 -36 75 -36 19 -33 660 -32 l418 1 -20 28 c-11 15 -55 67 -99 117 l-80 90 0
284 0 285 52 51 c76 76 79 80 63 93 -10 9 -29 -5 -84 -61z"/>
</g>
</svg>
